<svg width="60" height="61" fill="none" xmlns="http://www.w3.org/2000/svg"><path d="M32.996 54.003a3 3 0 110 6 3 3 0 010-6zm-10.5-3a3 3 0 110 6 3 3 0 010-6zm21 0a3 3 0 110 6 3 3 0 010-6zM33.002 12.027c9.504 0 14.898 6.291 15.681 13.89h.24A11.06 11.06 0 0160 36.968a11.062 11.062 0 01-11.077 11.046H17.077A11.062 11.062 0 016 36.968a11.061 11.061 0 0111.077-11.05h.24c.789-7.65 6.18-13.89 15.685-13.89zM7.096 24.493a2.25 2.25 0 01-.942 2.806l-.277.134L3.1 28.585a2.25 2.25 0 01-1.995-4.02l.273-.138 2.778-1.152a2.25 2.25 0 012.94 1.218zm19.461-14.5l-.513.175c-5.355 1.89-9.189 6.015-10.845 11.47l-.213.75-.174.713-.618.117a13.914 13.914 0 00-5.01 2.142A11.827 11.827 0 0126.557 9.994zm-23.74.094l.315.105 2.778 1.152a2.25 2.25 0 01-1.404 4.26l-.318-.102L1.41 14.35a2.25 2.25 0 011.407-4.26v-.003zm11.446-8.959l.135.273L15.55 4.18a2.25 2.25 0 01-4.02 1.999l-.138-.276-1.152-2.779a2.25 2.25 0 014.02-1.995h.003zm13.06-.957a2.25 2.25 0 011.32 2.625l-.102.315-1.153 2.779a2.25 2.25 0 01-4.26-1.404l.105-.319 1.15-2.778a2.25 2.25 0 012.94-1.218z" fill="url(#paint0_linear_1_198)"/><defs><linearGradient id="paint0_linear_1_198" x1="29.771" y1="92.613" x2="-7" y2="21.352" gradientUnits="userSpaceOnUse"><stop stop-color="#0043A7"/><stop offset="1" stop-color="#6377E3"/></linearGradient></defs></svg>