<svg width="54" height="54" fill="none" xmlns="http://www.w3.org/2000/svg"><path d="M37.8 18.9h8.1L32.4 37.8l5.4-18.9zm-16.2 0h10.8L27 40.5l-5.4-21.6zm-13.5 0h8.1l5.4 18.9L8.1 18.9zm27-13.5h5.4l5.4 8.1h-8.1l-2.7-8.1zm-10.8 0h5.4l2.7 8.1H21.6l2.7-8.1zm-10.8 0h5.4l-2.7 8.1H8.1l5.4-8.1zM10.8 0L0 16.2 27 54l27-37.8L43.2 0H10.8z" fill="url(#paint0_linear_1_196)"/><defs><linearGradient id="paint0_linear_1_196" x1="26.794" y1="83.348" x2="-6.298" y2="19.215" gradientUnits="userSpaceOnUse"><stop stop-color="#0043A7"/><stop offset="1" stop-color="#6377E3"/></linearGradient></defs></svg>