<svg width="49" height="39" fill="none" xmlns="http://www.w3.org/2000/svg"><path d="M17.944 1a.5.5 0 00-.5-.5H1a.5.5 0 00-.5.5v9.867a.5.5 0 00.5.5h3.289a.5.5 0 00.5-.5V4.788h12.655a.5.5 0 00.5-.5V1z" fill="url(#paint0_linear_1_181)" stroke="url(#paint1_linear_1_181)" stroke-linejoin="round"/><path d="M30.6.5a.5.5 0 00-.5.5v3.289a.5.5 0 00.5.5h12.655v6.078a.5.5 0 00.5.5h3.29a.5.5 0 00.5-.5V1a.5.5 0 00-.5-.5H30.6z" fill="url(#paint2_linear_1_181)" stroke="url(#paint3_linear_1_181)" stroke-linejoin="round"/><path d="M17.444 38.5a.5.5 0 00.5-.5v-3.29a.5.5 0 00-.5-.5H4.79v-6.078a.5.5 0 00-.5-.5H1a.5.5 0 00-.5.5V38a.5.5 0 00.5.5h16.444z" fill="url(#paint4_linear_1_181)" stroke="url(#paint5_linear_1_181)" stroke-linejoin="round"/><path d="M30.1 38a.5.5 0 00.5.5h16.444a.5.5 0 00.5-.5v-9.867a.5.5 0 00-.5-.5h-3.289a.5.5 0 00-.5.5v6.078H30.6a.5.5 0 00-.5.5V38z" fill="url(#paint6_linear_1_181)" stroke="url(#paint7_linear_1_181)" stroke-linejoin="round"/><defs><linearGradient id="paint0_linear_1_181" x1="9.159" y1="16.229" x2="4.968" y2="2.689" gradientUnits="userSpaceOnUse"><stop stop-color="#0043A7"/><stop offset="1" stop-color="#6377E3"/></linearGradient><linearGradient id="paint1_linear_1_181" x1="9.159" y1="16.229" x2="4.968" y2="2.689" gradientUnits="userSpaceOnUse"><stop stop-color="#0043A7"/><stop offset="1" stop-color="#6377E3"/></linearGradient><linearGradient id="paint2_linear_1_181" x1="38.759" y1="16.229" x2="34.568" y2="2.689" gradientUnits="userSpaceOnUse"><stop stop-color="#0043A7"/><stop offset="1" stop-color="#6377E3"/></linearGradient><linearGradient id="paint3_linear_1_181" x1="38.759" y1="16.229" x2="34.568" y2="2.689" gradientUnits="userSpaceOnUse"><stop stop-color="#0043A7"/><stop offset="1" stop-color="#6377E3"/></linearGradient><linearGradient id="paint4_linear_1_181" x1="9.159" y1="43.362" x2="4.968" y2="29.822" gradientUnits="userSpaceOnUse"><stop stop-color="#0043A7"/><stop offset="1" stop-color="#6377E3"/></linearGradient><linearGradient id="paint5_linear_1_181" x1="9.159" y1="43.362" x2="4.968" y2="29.822" gradientUnits="userSpaceOnUse"><stop stop-color="#0043A7"/><stop offset="1" stop-color="#6377E3"/></linearGradient><linearGradient id="paint6_linear_1_181" x1="38.759" y1="43.362" x2="34.568" y2="29.822" gradientUnits="userSpaceOnUse"><stop stop-color="#0043A7"/><stop offset="1" stop-color="#6377E3"/></linearGradient><linearGradient id="paint7_linear_1_181" x1="38.759" y1="43.362" x2="34.568" y2="29.822" gradientUnits="userSpaceOnUse"><stop stop-color="#0043A7"/><stop offset="1" stop-color="#6377E3"/></linearGradient></defs></svg>