<svg width="72" height="43" fill="none" xmlns="http://www.w3.org/2000/svg"><path d="M59.09 7.489a1.097 1.097 0 00-1.828 0l-6.587 9.882a1.097 1.097 0 00.913 1.706h.215l-4.44 7.104a1.097 1.097 0 00.931 1.68h.42l-3.598 7.195a1.098 1.098 0 00.982 1.59h9.882v5.49h4.392v-5.49h9.882a1.098 1.098 0 00.982-1.59L67.64 27.86h.42a1.098 1.098 0 00.93-1.68l-4.442-7.104h.215a1.098 1.098 0 00.914-1.706L59.09 7.489z" fill="url(#paint0_linear_1_188)"/><path d="M40 18.902v19.69c0 .618-.164 1.224-.474 1.754-.31.53-.754.965-1.285 1.259a3.153 3.153 0 01-1.57.395H26.66c-.442 0-.865-.18-1.178-.5a1.723 1.723 0 01-.488-1.204V30.072c0-.451-.176-.885-.488-1.204a1.648 1.648 0 00-1.179-.5H16.66c-.442 0-.866.18-1.179.5-.313.32-.488.753-.488 1.204v10.224c0 .452-.176.885-.488 1.205-.313.32-.737.499-1.179.499H3.334a3.243 3.243 0 01-1.37-.3 3.32 3.32 0 01-1.128-.85A3.555 3.555 0 010 38.514V18.902a3.467 3.467 0 011.091-2.521L17.756.89A3.28 3.28 0 0120 0c.83 0 1.63.318 2.242.89L38.91 16.38c.343.32.618.71.806 1.144.187.434.285.903.285 1.378z" fill="url(#paint1_linear_1_188)"/><defs><linearGradient id="paint0_linear_1_188" x1="58.075" y1="61.231" x2="33.402" y2="25.367" gradientUnits="userSpaceOnUse"><stop stop-color="#0043A7"/><stop offset="1" stop-color="#6377E3"/></linearGradient><linearGradient id="paint1_linear_1_188" x1="19.847" y1="64.826" x2="-6.607" y2="15.997" gradientUnits="userSpaceOnUse"><stop stop-color="#0043A7"/><stop offset="1" stop-color="#6377E3"/></linearGradient></defs></svg>