<svg width="53" height="55" fill="none" xmlns="http://www.w3.org/2000/svg"><path d="M18.68 8.594c-5.62 0-10.19 4.626-10.19 10.313 0 .95.76 1.718 1.699 1.718.938 0 1.698-.769 1.698-1.718 0-3.792 3.048-6.876 6.792-6.876.939 0 1.698-.769 1.698-1.718 0-.95-.76-1.72-1.698-1.72zm-8.485 40.732c0 .338.099.668.284.95l2.602 3.957c.315.48.846.767 1.414.767h8.368c.569 0 1.1-.288 1.414-.767l2.6-3.957c.186-.282.284-.613.285-.95l.006-4.639H10.19l.004 4.639zM18.679 0C7.824 0 0 8.913 0 18.907c0 4.766 1.746 9.114 4.623 12.437 1.766 2.04 4.536 6.317 5.564 9.9v.007h5.094v-.013a5.14 5.14 0 00-.228-1.511c-.594-1.914-2.422-6.958-6.599-11.782-2.18-2.517-3.345-5.71-3.354-9.038a13.61 13.61 0 0113.58-13.75c7.49 0 13.584 6.168 13.584 13.75 0 3.326-1.193 6.536-3.359 9.038-4.15 4.792-5.988 9.826-6.59 11.759a5.158 5.158 0 00-.236 1.536v.01h5.094v-.005c1.027-3.584 3.797-7.86 5.563-9.9a18.943 18.943 0 004.623-12.438C37.358 8.465 28.994 0 18.678 0z" fill="url(#paint0_linear_1_193)"/><path d="M51.796 28.373a.598.598 0 00-1.071-.043c-1.173 1.966-3.273 3.191-5.672 3.191h-3.027c-4.01 0-7.265 3.137-7.265 7.004 0 .256.03.5.057.748 2.414-1.667 5.899-3.082 10.84-3.082.333 0 .606.262.606.583a.597.597 0 01-.606.584c-9.512 0-13.545 5.621-14.438 7.733-.25.595.045 1.273.662 1.518.62.248 1.324-.04 1.581-.631.057-.132.791-1.748 2.72-3.305a7.358 7.358 0 006.619 2.816c5.94-.416 10.121-5.552 10.121-11.84 0-1.832-.408-3.729-1.127-5.276z" fill="url(#paint1_linear_1_193)"/><defs><linearGradient id="paint0_linear_1_193" x1="18.537" y1="84.891" x2="-21.304" y2="32.444" gradientUnits="userSpaceOnUse"><stop stop-color="#0043A7"/><stop offset="1" stop-color="#6377E3"/></linearGradient><linearGradient id="paint1_linear_1_193" x1="41.944" y1="56.85" x2="31.553" y2="33.355" gradientUnits="userSpaceOnUse"><stop stop-color="#0043A7"/><stop offset="1" stop-color="#6377E3"/></linearGradient></defs></svg>