<svg width="56" height="43" fill="none" xmlns="http://www.w3.org/2000/svg"><path d="M23.519.789l-9.731 9.96H2.625C1.175 10.75 0 11.953 0 13.438v16.125c0 1.484 1.175 2.688 2.625 2.688h11.163l9.73 9.96c1.645 1.684 4.482.501 4.482-1.9V2.69C28 .285 25.16-.893 23.519.788zm26.972 20.71l4.992-5.11c.69-.705.69-1.85 0-2.555l-2.496-2.556a1.736 1.736 0 00-2.496 0L45.5 16.39l-4.992-5.11a1.736 1.736 0 00-2.496 0l-2.496 2.555a1.838 1.838 0 000 2.555l4.992 5.11-4.991 5.11c-.69.706-.69 1.85 0 2.556l2.496 2.555a1.735 1.735 0 002.496 0l4.99-5.11 4.992 5.111a1.736 1.736 0 002.496 0l2.496-2.555c.69-.706.69-1.85 0-2.556l-4.992-5.11z" fill="url(#paint0_linear_1_180)"/><defs><linearGradient id="paint0_linear_1_180" x1="27.786" y1="66.37" x2="5.642" y2="10.478" gradientUnits="userSpaceOnUse"><stop stop-color="#0043A7"/><stop offset="1" stop-color="#6377E3"/></linearGradient></defs></svg>