<svg width="56" height="57" fill="none" xmlns="http://www.w3.org/2000/svg"><path d="M28.001 17.5c-5.786 0-10.5 4.715-10.5 10.501 0 5.787 4.714 10.5 10.5 10.5 5.787 0 10.5-4.713 10.5-10.5 0-5.786-4.713-10.5-10.5-10.5zm26.952 8.806l-10.359-5.174L48.26 10.15c.492-1.487-.92-2.898-2.396-2.395L34.881 11.42 29.697 1.05c-.7-1.4-2.691-1.4-3.391 0l-5.174 10.358L10.14 7.744c-1.488-.492-2.899.919-2.396 2.396l3.664 10.981L1.05 26.306c-1.4.7-1.4 2.69 0 3.39l10.358 5.174-3.664 10.993c-.492 1.488.919 2.899 2.396 2.396l10.981-3.665 5.174 10.359c.7 1.4 2.69 1.4 3.39 0l5.174-10.359 10.982 3.665c1.488.492 2.899-.92 2.396-2.396l-3.665-10.982 10.359-5.173c1.422-.711 1.422-2.702.022-3.402zM37.9 37.9c-5.458 5.458-14.34 5.458-19.798 0-5.458-5.458-5.458-14.34 0-19.798 5.459-5.458 14.34-5.458 19.798 0 5.458 5.459 5.458 14.34 0 19.798z" fill="url(#paint0_linear_1_187)"/><defs><linearGradient id="paint0_linear_1_187" x1="27.786" y1="86.439" x2="-6.534" y2="19.929" gradientUnits="userSpaceOnUse"><stop stop-color="#0043A7"/><stop offset="1" stop-color="#6377E3"/></linearGradient></defs></svg>