<svg width="60" height="44" fill="none" xmlns="http://www.w3.org/2000/svg"><path d="M46.364 39.402c2.263 0 4.09-1.82 4.09-4.076a4.078 4.078 0 00-4.09-4.076 4.078 4.078 0 00-4.091 4.076 4.078 4.078 0 004.09 4.076zm4.09-24.456h-6.818v6.793H55.8l-5.345-6.793zM13.637 39.402a4.077 4.077 0 004.091-4.076 4.078 4.078 0 00-4.09-4.076 4.078 4.078 0 00-4.092 4.076 4.078 4.078 0 004.091 4.076zM51.818 10.87L60 21.74v13.586h-5.455c0 4.511-3.654 8.152-8.181 8.152-4.528 0-8.182-3.641-8.182-8.152H21.818c0 4.511-3.654 8.152-8.182 8.152-4.527 0-8.181-3.641-8.181-8.152H0V5.435A5.426 5.426 0 015.455 0h38.181v10.87h8.182zM5.455 5.435V29.89h2.072a8.23 8.23 0 016.11-2.717 8.23 8.23 0 016.108 2.717h18.437V5.435H5.455zm5.454 12.228L15 13.587l4.09 4.076 9.546-9.51 4.091 4.075-13.636 13.587-8.182-8.152z" fill="url(#paint0_linear_1_192)"/><defs><linearGradient id="paint0_linear_1_192" x1="29.771" y1="67.108" x2="8.322" y2="9.743" gradientUnits="userSpaceOnUse"><stop stop-color="#0043A7"/><stop offset="1" stop-color="#6377E3"/></linearGradient></defs></svg>